<mxfile host="app.diagrams.net" modified="2020-12-31T15:27:58.959Z" agent="5.0 (Windows)" etag="jZ9jet7bsBB9nDZRm_x9" version="14.1.4" type="github">
  <diagram id="C5RBs43oDa-KdzZeNtuy" name="Page-1">
    <mxGraphModel dx="1102" dy="921" grid="1" gridSize="10" guides="1" tooltips="1" connect="1" arrows="1" fold="1" page="1" pageScale="1" pageWidth="827" pageHeight="1169" math="0" shadow="0">
      <root>
        <mxCell id="WIyWlLk6GJQsqaUBKTNV-0" />
        <mxCell id="WIyWlLk6GJQsqaUBKTNV-1" parent="WIyWlLk6GJQsqaUBKTNV-0" />
        <mxCell id="TdW-AIQOSF4BkJxPFxCW-7" value="" style="edgeStyle=orthogonalEdgeStyle;rounded=0;orthogonalLoop=1;jettySize=auto;html=1;" edge="1" parent="WIyWlLk6GJQsqaUBKTNV-1" source="TdW-AIQOSF4BkJxPFxCW-3" target="TdW-AIQOSF4BkJxPFxCW-6">
          <mxGeometry relative="1" as="geometry" />
        </mxCell>
        <mxCell id="TdW-AIQOSF4BkJxPFxCW-3" value="&lt;div&gt;Start&lt;/div&gt;" style="ellipse;whiteSpace=wrap;html=1;rounded=1;shadow=0;glass=0;strokeWidth=1;" vertex="1" parent="WIyWlLk6GJQsqaUBKTNV-1">
          <mxGeometry x="354" y="40" width="120" height="80" as="geometry" />
        </mxCell>
        <mxCell id="TdW-AIQOSF4BkJxPFxCW-9" value="" style="edgeStyle=orthogonalEdgeStyle;rounded=0;orthogonalLoop=1;jettySize=auto;html=1;" edge="1" parent="WIyWlLk6GJQsqaUBKTNV-1" source="TdW-AIQOSF4BkJxPFxCW-6" target="TdW-AIQOSF4BkJxPFxCW-8">
          <mxGeometry relative="1" as="geometry" />
        </mxCell>
        <mxCell id="TdW-AIQOSF4BkJxPFxCW-6" value="&lt;p style=&quot;text-align: center&quot;&gt;&lt;span style=&quot;font-family: &amp;#34;noto_regular&amp;#34; ; color: rgb(47 , 47 , 47) ; font-size: 10pt&quot;&gt;licznik&lt;/span&gt;&lt;/p&gt;&lt;p style=&quot;text-align: center&quot;&gt;&lt;span style=&quot;font-family: &amp;#34;noto_regular&amp;#34; ; color: rgb(47 , 47 , 47) ; font-size: 10pt&quot;&gt;wyrazPoprzedni&lt;/span&gt;&lt;/p&gt;&lt;p style=&quot;text-align: center&quot;&gt;&lt;span style=&quot;font-family: &amp;#34;noto_regular&amp;#34; ; color: rgb(47 , 47 , 47) ; font-size: 10pt&quot;&gt;wyrazNastęny&lt;/span&gt;&lt;/p&gt;&lt;p style=&quot;text-align: center&quot;&gt;&lt;span style=&quot;font-family: &amp;#34;noto_regular&amp;#34; ; color: rgb(47 , 47 , 47) ; font-size: 10pt&quot;&gt;wynik&lt;/span&gt;&lt;/p&gt;" style="rounded=0;whiteSpace=wrap;html=1;shadow=0;glass=0;strokeWidth=1;" vertex="1" parent="WIyWlLk6GJQsqaUBKTNV-1">
          <mxGeometry x="359" y="170" width="110" height="130" as="geometry" />
        </mxCell>
        <mxCell id="TdW-AIQOSF4BkJxPFxCW-8" value="&lt;p style=&quot;text-align: center&quot;&gt;&lt;span style=&quot;font-family: &amp;#34;noto_regular&amp;#34; ; color: rgb(75 , 75 , 75) ; font-size: 10pt&quot;&gt;wyrazPoprzedni=0&lt;/span&gt;&lt;/p&gt;&lt;p style=&quot;text-align: center&quot;&gt;&lt;span style=&quot;font-family: &amp;#34;noto_regular&amp;#34; ; color: rgb(75 , 75 , 75) ; font-size: 10pt&quot;&gt;wyrazNastępny=1&lt;/span&gt;&lt;/p&gt;&lt;p style=&quot;text-align: center&quot;&gt;&lt;span style=&quot;font-family: &amp;#34;noto_regular&amp;#34; ; color: rgb(75 , 75 , 75) ; font-size: 10pt&quot;&gt;wynik=0&lt;/span&gt;&lt;/p&gt;" style="whiteSpace=wrap;html=1;rounded=0;shadow=0;strokeWidth=1;glass=0;" vertex="1" parent="WIyWlLk6GJQsqaUBKTNV-1">
          <mxGeometry x="359" y="350" width="109" height="130" as="geometry" />
        </mxCell>
      </root>
    </mxGraphModel>
  </diagram>
</mxfile>
